# xmcd
#
# Track frame offsets:
#	182
#	29890
#	51707
#	65027
#	87730
#	117087
#	141220
#	156372
#	167560
#	175337
#	216525
#	238585
#	256010
#	270695
#	291492
#	302460
#
# Disc length: 4236 seconds
#
# Revision: 1
# Processed by: cddbd v1.5.1PL0 Copyright (c) Steve Scherf et al.
# Submitted via: CDex 1.50Beta5
#
DISCID=01108a10
DTITLE=ウィーン国立歌劇場合唱団 - これがマーチだ
DYEAR=1996
DGENRE=Classical
TTITLE0=エルガー/威風堂々
TTITLE1=ベルリオーズ/ハンガリー行進曲
TTITLE2=J・シュトラウス（一世）/ラデッキー行進曲
TTITLE3=メンデルスゾーン/結婚行進曲 ・真夏の夜の夢・
TTITLE4=ワーグナー/大行進曲 ・タンホイザー・
TTITLE5=シューベルト/軍隊行進曲
TTITLE6=マイヤベーア/戴冠式行進曲
TTITLE7=チャイコフスキー/くるみ割り人形
TTITLE8=プロコフィエフ/3つのオレンジへの恋
TTITLE9=チャイコフスキー/スラブ行進曲
TTITLE10=タイケ/旧友
TTITLE11=アルフォート/ボギー大佐
TTITLE12=J・F・ワーグナー/双頭の鷲の旗の下に
TTITLE13=團伊玖磨/祝典行進曲
TTITLE14=スーザ/ワシントン・ポスト
TTITLE15=スーザ/星条旗よ永遠なれ
EXTD=
EXTT0=
EXTT1=
EXTT2=
EXTT3=
EXTT4=
EXTT5=
EXTT6=
EXTT7=
EXTT8=
EXTT9=
EXTT10=
EXTT11=
EXTT12=
EXTT13=
EXTT14=
EXTT15=
PLAYORDER=
